<mxfile host="app.diagrams.net" agent="Mozilla/5.0 (Windows NT 10.0; Win64; x64) AppleWebKit/537.36 (KHTML, like Gecko) Chrome/130.0.0.0 Safari/537.36" version="24.8.6">
  <diagram id="C5RBs43oDa-KdzZeNtuy" name="Page-1">
    <mxGraphModel dx="932" dy="578" grid="1" gridSize="10" guides="1" tooltips="1" connect="1" arrows="1" fold="1" page="1" pageScale="1" pageWidth="827" pageHeight="1169" math="0" shadow="0">
      <root>
        <mxCell id="WIyWlLk6GJQsqaUBKTNV-0" />
        <mxCell id="WIyWlLk6GJQsqaUBKTNV-1" parent="WIyWlLk6GJQsqaUBKTNV-0" />
        <mxCell id="ChVXrBqrEHMdO8lqSGDM-0" value="" style="ellipse;html=1;shape=startState;fillColor=#000000;strokeColor=#ff0000;" parent="WIyWlLk6GJQsqaUBKTNV-1" vertex="1">
          <mxGeometry x="430" y="30" width="30" height="30" as="geometry" />
        </mxCell>
        <mxCell id="ChVXrBqrEHMdO8lqSGDM-1" value="" style="edgeStyle=orthogonalEdgeStyle;html=1;verticalAlign=bottom;endArrow=open;endSize=8;strokeColor=#ff0000;rounded=0;" parent="WIyWlLk6GJQsqaUBKTNV-1" source="ChVXrBqrEHMdO8lqSGDM-0" edge="1">
          <mxGeometry relative="1" as="geometry">
            <mxPoint x="445" y="130" as="targetPoint" />
          </mxGeometry>
        </mxCell>
        <mxCell id="ChVXrBqrEHMdO8lqSGDM-4" value="Logged_Out" style="rounded=1;whiteSpace=wrap;html=1;" parent="WIyWlLk6GJQsqaUBKTNV-1" vertex="1">
          <mxGeometry x="400" y="130" width="90" height="60" as="geometry" />
        </mxCell>
        <mxCell id="ChVXrBqrEHMdO8lqSGDM-9" value="Logged_In&amp;nbsp;" style="rounded=1;whiteSpace=wrap;html=1;" parent="WIyWlLk6GJQsqaUBKTNV-1" vertex="1">
          <mxGeometry x="400" y="260" width="90" height="60" as="geometry" />
        </mxCell>
        <mxCell id="ChVXrBqrEHMdO8lqSGDM-10" value="" style="endArrow=classic;html=1;rounded=0;entryX=0.25;entryY=1;entryDx=0;entryDy=0;exitX=0.333;exitY=0;exitDx=0;exitDy=0;exitPerimeter=0;" parent="WIyWlLk6GJQsqaUBKTNV-1" source="ChVXrBqrEHMdO8lqSGDM-9" target="ChVXrBqrEHMdO8lqSGDM-4" edge="1">
          <mxGeometry width="50" height="50" relative="1" as="geometry">
            <mxPoint x="423" y="250" as="sourcePoint" />
            <mxPoint x="500" y="280" as="targetPoint" />
            <Array as="points">
              <mxPoint x="400" y="230" />
            </Array>
          </mxGeometry>
        </mxCell>
        <mxCell id="ChVXrBqrEHMdO8lqSGDM-11" value="logout()" style="text;html=1;align=center;verticalAlign=middle;resizable=0;points=[];autosize=1;strokeColor=none;fillColor=none;" parent="WIyWlLk6GJQsqaUBKTNV-1" vertex="1">
          <mxGeometry x="340" y="208" width="60" height="30" as="geometry" />
        </mxCell>
        <mxCell id="ChVXrBqrEHMdO8lqSGDM-12" value="" style="endArrow=classic;html=1;rounded=0;exitX=0.778;exitY=1;exitDx=0;exitDy=0;exitPerimeter=0;entryX=0.75;entryY=0;entryDx=0;entryDy=0;" parent="WIyWlLk6GJQsqaUBKTNV-1" source="ChVXrBqrEHMdO8lqSGDM-4" target="ChVXrBqrEHMdO8lqSGDM-9" edge="1">
          <mxGeometry width="50" height="50" relative="1" as="geometry">
            <mxPoint x="450" y="330" as="sourcePoint" />
            <mxPoint x="570" y="390" as="targetPoint" />
            <Array as="points">
              <mxPoint x="490" y="230" />
            </Array>
          </mxGeometry>
        </mxCell>
        <mxCell id="ChVXrBqrEHMdO8lqSGDM-13" value="login()" style="text;html=1;align=center;verticalAlign=middle;resizable=0;points=[];autosize=1;strokeColor=none;fillColor=none;" parent="WIyWlLk6GJQsqaUBKTNV-1" vertex="1">
          <mxGeometry x="500" y="208" width="60" height="30" as="geometry" />
        </mxCell>
        <mxCell id="ChVXrBqrEHMdO8lqSGDM-14" value="Accepted&amp;nbsp;" style="rounded=1;whiteSpace=wrap;html=1;" parent="WIyWlLk6GJQsqaUBKTNV-1" vertex="1">
          <mxGeometry x="240" y="480" width="110" height="60" as="geometry" />
        </mxCell>
        <mxCell id="ChVXrBqrEHMdO8lqSGDM-15" value="Pending&amp;nbsp;" style="rounded=1;whiteSpace=wrap;html=1;" parent="WIyWlLk6GJQsqaUBKTNV-1" vertex="1">
          <mxGeometry x="390" y="400" width="100" height="40" as="geometry" />
        </mxCell>
        <mxCell id="ChVXrBqrEHMdO8lqSGDM-19" value="" style="endArrow=classic;html=1;rounded=0;entryX=0.556;entryY=0;entryDx=0;entryDy=0;entryPerimeter=0;" parent="WIyWlLk6GJQsqaUBKTNV-1" target="ChVXrBqrEHMdO8lqSGDM-15" edge="1">
          <mxGeometry width="50" height="50" relative="1" as="geometry">
            <mxPoint x="450" y="320" as="sourcePoint" />
            <mxPoint x="500" y="280" as="targetPoint" />
          </mxGeometry>
        </mxCell>
        <mxCell id="ChVXrBqrEHMdO8lqSGDM-23" value="" style="ellipse;html=1;shape=endState;fillColor=#000000;strokeColor=#ff0000;" parent="WIyWlLk6GJQsqaUBKTNV-1" vertex="1">
          <mxGeometry x="435" y="630" width="30" height="30" as="geometry" />
        </mxCell>
        <mxCell id="cs_Ru20W0b7ddQKjLEaM-0" value="&lt;div&gt;Opened request List&lt;/div&gt;" style="text;html=1;align=center;verticalAlign=middle;resizable=0;points=[];autosize=1;strokeColor=none;fillColor=none;" vertex="1" parent="WIyWlLk6GJQsqaUBKTNV-1">
          <mxGeometry x="465" y="335" width="130" height="30" as="geometry" />
        </mxCell>
        <mxCell id="cs_Ru20W0b7ddQKjLEaM-5" value="" style="endArrow=classic;html=1;rounded=0;entryX=0.5;entryY=0;entryDx=0;entryDy=0;exitX=0.556;exitY=1;exitDx=0;exitDy=0;exitPerimeter=0;" edge="1" parent="WIyWlLk6GJQsqaUBKTNV-1" source="cs_Ru20W0b7ddQKjLEaM-8" target="ChVXrBqrEHMdO8lqSGDM-23">
          <mxGeometry width="50" height="50" relative="1" as="geometry">
            <mxPoint x="450" y="540" as="sourcePoint" />
            <mxPoint x="570" y="640" as="targetPoint" />
          </mxGeometry>
        </mxCell>
        <mxCell id="cs_Ru20W0b7ddQKjLEaM-6" value="request discarded" style="text;html=1;align=center;verticalAlign=middle;resizable=0;points=[];autosize=1;strokeColor=none;fillColor=none;" vertex="1" parent="WIyWlLk6GJQsqaUBKTNV-1">
          <mxGeometry x="510" y="585" width="120" height="30" as="geometry" />
        </mxCell>
        <mxCell id="cs_Ru20W0b7ddQKjLEaM-7" value="" style="endArrow=classic;html=1;rounded=0;exitX=0.05;exitY=0.5;exitDx=0;exitDy=0;exitPerimeter=0;entryX=0.5;entryY=0;entryDx=0;entryDy=0;" edge="1" parent="WIyWlLk6GJQsqaUBKTNV-1" source="ChVXrBqrEHMdO8lqSGDM-15" target="ChVXrBqrEHMdO8lqSGDM-14">
          <mxGeometry width="50" height="50" relative="1" as="geometry">
            <mxPoint x="420" y="480" as="sourcePoint" />
            <mxPoint x="340" y="590" as="targetPoint" />
            <Array as="points">
              <mxPoint x="295" y="420" />
            </Array>
          </mxGeometry>
        </mxCell>
        <mxCell id="cs_Ru20W0b7ddQKjLEaM-8" value="Rejected&amp;nbsp;" style="rounded=1;whiteSpace=wrap;html=1;" vertex="1" parent="WIyWlLk6GJQsqaUBKTNV-1">
          <mxGeometry x="570" y="480" width="90" height="60" as="geometry" />
        </mxCell>
        <mxCell id="cs_Ru20W0b7ddQKjLEaM-9" value="" style="endArrow=classic;html=1;rounded=0;exitX=1;exitY=0.5;exitDx=0;exitDy=0;exitPerimeter=0;" edge="1" parent="WIyWlLk6GJQsqaUBKTNV-1" source="ChVXrBqrEHMdO8lqSGDM-15">
          <mxGeometry width="50" height="50" relative="1" as="geometry">
            <mxPoint x="420" y="480" as="sourcePoint" />
            <mxPoint x="610" y="480" as="targetPoint" />
            <Array as="points">
              <mxPoint x="610" y="420" />
            </Array>
          </mxGeometry>
        </mxCell>
        <mxCell id="cs_Ru20W0b7ddQKjLEaM-10" value="acceptRequest()" style="text;html=1;align=center;verticalAlign=middle;resizable=0;points=[];autosize=1;strokeColor=none;fillColor=none;" vertex="1" parent="WIyWlLk6GJQsqaUBKTNV-1">
          <mxGeometry x="290" y="430" width="110" height="30" as="geometry" />
        </mxCell>
        <mxCell id="cs_Ru20W0b7ddQKjLEaM-11" value="rejectRequest()" style="text;html=1;align=center;verticalAlign=middle;resizable=0;points=[];autosize=1;strokeColor=none;fillColor=none;" vertex="1" parent="WIyWlLk6GJQsqaUBKTNV-1">
          <mxGeometry x="510" y="430" width="110" height="30" as="geometry" />
        </mxCell>
        <mxCell id="cs_Ru20W0b7ddQKjLEaM-12" value="" style="endArrow=classic;html=1;rounded=0;" edge="1" parent="WIyWlLk6GJQsqaUBKTNV-1">
          <mxGeometry width="50" height="50" relative="1" as="geometry">
            <mxPoint x="290" y="540" as="sourcePoint" />
            <mxPoint x="440" y="630" as="targetPoint" />
          </mxGeometry>
        </mxCell>
        <mxCell id="cs_Ru20W0b7ddQKjLEaM-13" value="friend added" style="text;html=1;align=center;verticalAlign=middle;resizable=0;points=[];autosize=1;strokeColor=none;fillColor=none;" vertex="1" parent="WIyWlLk6GJQsqaUBKTNV-1">
          <mxGeometry x="280" y="585" width="90" height="30" as="geometry" />
        </mxCell>
      </root>
    </mxGraphModel>
  </diagram>
</mxfile>
